<?xml version="1.0" encoding="utf-8"?>
<!-- Generator: Adobe Illustrator 24.2.1, SVG Export Plug-In . SVG Version: 6.00 Build 0)  -->
<svg version="1.1" id="Layer_1" xmlns="http://www.w3.org/2000/svg" xmlns:xlink="http://www.w3.org/1999/xlink" x="0px" y="0px"
	 viewBox="0 0 358.5 150.6" style="enable-background:new 0 0 358.5 150.6;" xml:space="preserve">
<style type="text/css">
	.st0{fill:#F7F5F5;}
	.st1{fill:#FFDB7D;}
	.st2{fill:#B7D7D6;}
	.st3{fill:#EB615D;}
</style>
<g>
	<polygon class="st0" points="164.8,50.7 147.4,50.7 147.4,38.7 169.9,38.7 169.9,28.1 134.1,28.1 134.1,83.1 147.4,83.1 
		147.4,60.8 164.8,60.8 	"/>
	<polygon class="st0" points="225.3,83.1 238.6,83.1 238.6,28.5 222.4,28.5 207.9,66.5 193,28.5 176.8,28.5 176.8,83.1 190.1,83.1 
		190.1,48.9 202,83.1 213.5,83.1 225.3,48.9 	"/>
	<path class="st0" d="M258.8,80c4,2.4,8.7,3.5,14.1,3.5c7,0,12.8-1.9,17.4-5.6c4.6-3.7,7.6-8.7,8.9-14.9h-14.1
		c-1,2.5-2.6,4.5-4.8,5.9c-2.2,1.5-4.7,2.2-7.7,2.2c-3.9,0-7-1.4-9.4-4.2c-2.4-2.8-3.6-6.6-3.6-11.4c0-4.8,1.2-8.6,3.6-11.4
		c2.4-2.9,5.5-4.3,9.4-4.3c3,0,5.5,0.7,7.7,2.2c2.2,1.5,3.7,3.4,4.8,6h14.1c-1.3-6.3-4.3-11.3-8.9-14.9c-4.6-3.7-10.4-5.5-17.4-5.5
		c-5.3,0-10,1.2-14.1,3.5c-4,2.4-7.2,5.7-9.4,9.9c-2.2,4.3-3.3,9.1-3.3,14.5s1.1,10.3,3.3,14.5C251.7,74.3,254.8,77.6,258.8,80z"/>
	<path class="st0" d="M330.5,52.2v9.6h16.8c-1,3.2-2.7,5.7-5.1,7.4c-2.4,1.7-5.2,2.6-8.3,2.6c-4.9,0-8.7-1.4-11.4-4.2
		c-2.7-2.8-4-6.8-4-12.1c0-4.8,1.3-8.6,3.8-11.5c2.5-2.8,5.9-4.2,10.1-4.2c2.7,0,5,0.6,6.9,1.8c1.9,1.2,3.3,2.7,4.3,4.7h14.1
		c-1.1-5.8-3.9-10.3-8.3-13.7c-4.5-3.4-10.1-5.1-17-5.1c-5.5,0-10.3,1.2-14.4,3.5c-4.1,2.4-7.3,5.7-9.6,9.9
		c-2.3,4.3-3.4,9.1-3.4,14.5s1.1,10.3,3.4,14.5c2.3,4.3,5.5,7.6,9.6,9.9c4.1,2.4,9,3.5,14.5,3.5c4.6,0,8.6-0.9,12.2-2.6
		c3.6-1.7,6.5-3.9,8.8-6.7c2.3-2.7,3.9-5.7,5-8.9V52.2H330.5z"/>
	<path class="st0" d="M133.9,131c0,3.9-1.7,5.9-5.1,5.9c-3.9,0-5.8-2.6-5.8-7.7h-13.1c0,6.4,1.8,11.3,5.3,14.7
		c3.5,3.4,8.3,5.1,14.3,5.1c5.5,0,9.9-1.6,13-4.7c3.1-3.1,4.7-7.5,4.7-13.3V93.4h-13.3V131z"/>
	<path class="st0" d="M196.2,96.2c-4.2-2.4-8.9-3.6-14.1-3.6c-5.1,0-9.8,1.2-14,3.6c-4.2,2.4-7.6,5.8-10,10
		c-2.5,4.3-3.7,9.1-3.7,14.5c0,5.4,1.2,10.2,3.7,14.5c2.5,4.3,5.8,7.7,10,10.1c4.2,2.4,8.9,3.6,14,3.6c5.1,0,9.8-1.2,14-3.6
		c4.2-2.4,7.6-5.8,10-10.1c2.5-4.3,3.7-9.2,3.7-14.5c0-5.4-1.2-10.2-3.7-14.5C203.8,101.9,200.4,98.6,196.2,96.2z M192.4,132.2
		c-2.6,2.9-6,4.3-10.3,4.3c-4.4,0-7.8-1.4-10.4-4.3c-2.6-2.9-3.9-6.7-3.9-11.5c0-4.9,1.3-8.7,3.9-11.6c2.6-2.8,6-4.2,10.4-4.2
		c4.4,0,7.8,1.4,10.4,4.3c2.6,2.9,3.8,6.7,3.8,11.5S195,129.4,192.4,132.2z"/>
	<path class="st0" d="M250.3,120.1c2.9-0.7,5.2-2.1,6.9-4.3c1.8-2.2,2.6-5,2.6-8.3c0-4.5-1.5-8-4.6-10.4c-3.1-2.4-7.4-3.7-13-3.7
		h-25v55h25.6c5.9,0,10.4-1.3,13.5-4c3.1-2.6,4.7-6.3,4.7-11c0-3.2-1-6-2.9-8.5C256.3,122.5,253.6,120.9,250.3,120.1z M230.6,104.1
		h8.6c4.7,0,7.1,2,7.1,5.9c0,3.9-2.3,5.9-6.9,5.9h-8.7V104.1z M240.1,137.6h-9.5v-12.4h9.4c2.4,0,4.2,0.6,5.5,1.7
		c1.3,1.1,1.9,2.7,1.9,4.6C247.5,135.6,245.1,137.6,240.1,137.6z"/>
	<path class="st0" d="M299.5,119.1c-2.2-1.2-5.1-2.3-8.6-3.5c-2.4-0.9-4.3-1.6-5.6-2.2c-1.3-0.6-2.4-1.3-3.2-2.2
		c-0.9-0.9-1.3-2-1.3-3.3c0-1.6,0.5-2.8,1.4-3.7c1-0.8,2.2-1.2,3.8-1.2c1.8,0,3.3,0.5,4.3,1.6c1.1,1.1,1.7,2.5,2,4.3h14.4
		c-0.5-5.1-2.5-9.1-6.1-12c-3.6-2.9-8.5-4.4-14.6-4.4c-3.8,0-7.1,0.6-10.1,1.9c-2.9,1.3-5.2,3.1-6.9,5.5c-1.7,2.4-2.5,5.2-2.5,8.5
		c0,3.5,0.8,6.4,2.4,8.6c1.6,2.2,3.5,3.9,5.7,5c2.2,1.1,5,2.3,8.5,3.5c2.4,0.8,4.3,1.5,5.6,2.1c1.3,0.6,2.5,1.4,3.4,2.3
		c0.9,0.9,1.4,2.1,1.4,3.5c0,1.6-0.5,2.8-1.5,3.7c-1,0.9-2.3,1.4-4,1.4c-2,0-3.6-0.6-4.9-1.8c-1.3-1.2-2-2.8-2.2-4.9h-14.2
		c0.4,5.4,2.5,9.6,6.5,12.6c4,3,9.1,4.5,15.2,4.5c4.1,0,7.6-0.7,10.5-2.2c2.9-1.5,5.1-3.4,6.5-5.8c1.5-2.4,2.2-5.1,2.2-8
		c0-3.6-0.8-6.5-2.4-8.7C303.6,122,301.7,120.3,299.5,119.1z"/>
	<path class="st1" d="M47.9,32.9H16L0,60.6l16,27.6h31.9l16-27.6L47.9,32.9z M40.5,75.4H23.3l-8.6-14.9l8.6-14.9h17.2l8.6,14.9
		L40.5,75.4z"/>
	<path class="st2" d="M104,65.6H72l-16,27.6l16,27.6H104l16-27.6L104,65.6z M96.6,108.1H79.4l-8.6-14.9l8.6-14.9h17.2l8.6,14.9
		L96.6,108.1z"/>
	<path class="st3" d="M104,56.2l16-27.6L104,0.9H72l-16,27.6l16,27.6H104z M79.4,13.6h17.2l8.6,14.9l-8.6,14.9H79.4l-8.6-14.9
		L79.4,13.6z"/>
</g>
</svg>
