<?xml version="1.0" encoding="utf-8"?>
<!-- Generator: Adobe Illustrator 24.2.1, SVG Export Plug-In . SVG Version: 6.00 Build 0)  -->
<svg version="1.1" id="Layer_1" xmlns="http://www.w3.org/2000/svg" xmlns:xlink="http://www.w3.org/1999/xlink" x="0px" y="0px"
	 viewBox="0 0 366.6 150.6" style="enable-background:new 0 0 366.6 150.6;" xml:space="preserve">
<style type="text/css">
	.st0{fill:#F7F6F6;}
	.st1{fill:#FFDC7D;}
	.st2{fill:#B7D8D6;}
	.st3{fill:#EC615D;}
</style>
<g>
	<polygon class="st0" points="167.6,50.7 149.9,50.7 149.9,38.4 172.8,38.4 172.8,27.7 136.3,27.7 136.3,83.6 149.9,83.6 149.9,61 
		167.6,61 	"/>
	<polygon class="st0" points="229.1,83.6 242.6,83.6 242.6,28.1 226.2,28.1 211.4,66.8 196.3,28.1 179.7,28.1 179.7,83.6 
		193.3,83.6 193.3,48.8 205.4,83.6 217.1,83.6 229.1,48.9 	"/>
	<path class="st0" d="M263.2,80.5c4.1,2.4,8.9,3.6,14.3,3.6c7.1,0,13-1.9,17.7-5.7c4.7-3.8,7.7-8.8,9.1-15.1h-14.3
		c-1.1,2.5-2.7,4.5-4.9,6c-2.2,1.5-4.8,2.2-7.8,2.2c-4,0-7.1-1.4-9.6-4.3c-2.4-2.9-3.6-6.7-3.6-11.6c0-4.9,1.2-8.7,3.6-11.6
		c2.4-2.9,5.6-4.3,9.6-4.3c3,0,5.6,0.7,7.8,2.2c2.2,1.5,3.8,3.5,4.9,6.1h14.3c-1.4-6.4-4.4-11.4-9.1-15.2
		c-4.7-3.7-10.6-5.6-17.7-5.6c-5.4,0-10.2,1.2-14.3,3.6c-4.1,2.4-7.3,5.8-9.5,10.1c-2.2,4.3-3.4,9.3-3.4,14.8s1.1,10.5,3.4,14.8
		C255.9,74.7,259.1,78.1,263.2,80.5z"/>
	<path class="st0" d="M336.1,52.2v9.7h17.1c-1,3.3-2.7,5.8-5.1,7.6c-2.4,1.8-5.2,2.6-8.5,2.6c-5,0-8.9-1.4-11.6-4.3
		c-2.7-2.8-4.1-6.9-4.1-12.3c0-4.9,1.3-8.8,3.9-11.7c2.6-2.9,6-4.3,10.3-4.3c2.7,0,5.1,0.6,7,1.8c2,1.2,3.4,2.8,4.3,4.8h14.3
		c-1.1-5.9-3.9-10.5-8.5-13.9c-4.5-3.4-10.3-5.1-17.3-5.1c-5.6,0-10.5,1.2-14.7,3.6c-4.2,2.4-7.4,5.8-9.7,10.1
		c-2.3,4.3-3.4,9.3-3.4,14.8s1.1,10.5,3.4,14.8c2.3,4.3,5.5,7.7,9.8,10.1c4.2,2.4,9.1,3.6,14.8,3.6c4.6,0,8.8-0.9,12.4-2.6
		c3.6-1.7,6.6-4,8.9-6.8c2.3-2.8,4-5.8,5.1-9.1V52.2H336.1z"/>
	<path class="st0" d="M136.1,132.3c0,4-1.7,6-5.1,6c-4,0-5.9-2.6-5.9-7.8h-13.4c0,6.5,1.8,11.5,5.4,14.9c3.6,3.5,8.4,5.2,14.6,5.2
		c5.6,0,10.1-1.6,13.2-4.7c3.2-3.2,4.8-7.7,4.8-13.5V94.1h-13.5V132.3z"/>
	<path class="st0" d="M199.5,96.9c-4.3-2.5-9.1-3.7-14.4-3.7c-5.2,0-10,1.2-14.3,3.7c-4.3,2.5-7.7,5.9-10.2,10.2
		c-2.5,4.3-3.8,9.3-3.8,14.7c0,5.5,1.3,10.4,3.8,14.8c2.5,4.4,5.9,7.8,10.2,10.2c4.3,2.5,9.1,3.7,14.3,3.7s10-1.2,14.3-3.7
		c4.3-2.5,7.7-5.9,10.2-10.2c2.5-4.4,3.8-9.3,3.8-14.8c0-5.5-1.2-10.4-3.7-14.7C207.2,102.8,203.8,99.4,199.5,96.9z M195.7,133.6
		c-2.6,2.9-6.1,4.3-10.5,4.3c-4.4,0-7.9-1.4-10.6-4.3c-2.6-2.9-3.9-6.8-3.9-11.7c0-5,1.3-8.9,3.9-11.7c2.6-2.9,6.1-4.3,10.6-4.3
		c4.4,0,7.9,1.5,10.6,4.3c2.6,2.9,3.9,6.8,3.9,11.7S198.3,130.7,195.7,133.6z"/>
	<path class="st0" d="M254.5,121.3c2.9-0.7,5.2-2.1,7-4.4c1.8-2.2,2.7-5,2.7-8.4c0-4.6-1.6-8.1-4.7-10.6c-3.1-2.5-7.5-3.7-13.2-3.7
		H221V150h26c6,0,10.5-1.3,13.7-4c3.2-2.7,4.8-6.4,4.8-11.2c0-3.3-1-6.1-3-8.6C260.6,123.7,257.9,122,254.5,121.3z M234.5,105h8.7
		c4.8,0,7.2,2,7.2,6c0,4-2.3,6-7,6h-8.9V105z M244.2,139h-9.6v-12.6h9.6c2.4,0,4.3,0.6,5.6,1.7c1.3,1.1,2,2.7,2,4.7
		C251.7,137,249.2,139,244.2,139z"/>
	<path class="st0" d="M304.5,120.3c-2.3-1.2-5.2-2.4-8.8-3.6c-2.5-0.9-4.4-1.6-5.7-2.2c-1.3-0.6-2.4-1.3-3.3-2.3
		c-0.9-0.9-1.3-2-1.3-3.4c0-1.6,0.5-2.9,1.5-3.7c1-0.8,2.3-1.3,3.8-1.3c1.8,0,3.3,0.5,4.4,1.6c1.1,1.1,1.8,2.5,2,4.4h14.6
		c-0.5-5.2-2.5-9.2-6.2-12.2c-3.7-3-8.6-4.4-14.8-4.4c-3.9,0-7.3,0.6-10.2,1.9c-3,1.3-5.3,3.2-7,5.6c-1.7,2.4-2.5,5.3-2.5,8.6
		c0,3.6,0.8,6.5,2.4,8.7c1.6,2.2,3.5,3.9,5.8,5.1c2.2,1.1,5.1,2.3,8.7,3.5c2.4,0.8,4.3,1.6,5.7,2.2c1.4,0.6,2.5,1.4,3.4,2.3
		c0.9,0.9,1.4,2.1,1.4,3.6c0,1.6-0.5,2.8-1.5,3.8c-1,0.9-2.4,1.4-4.1,1.4c-2,0-3.7-0.6-4.9-1.8c-1.3-1.2-2-2.9-2.3-5h-14.4
		c0.4,5.5,2.6,9.8,6.6,12.8c4.1,3.1,9.2,4.6,15.5,4.6c4.2,0,7.7-0.7,10.6-2.2c2.9-1.5,5.1-3.5,6.6-5.9c1.5-2.5,2.3-5.2,2.3-8.1
		c0-3.6-0.8-6.6-2.5-8.9C308.7,123.2,306.8,121.5,304.5,120.3z"/>
	<path class="st1" d="M48.7,32.6H16.2L0,60.7l16.2,28.1h32.5l16.2-28.1L48.7,32.6z M41.2,75.8H23.7L15,60.7l8.7-15.1h17.5l8.7,15.1
		L41.2,75.8z"/>
	<path class="st2" d="M105.7,65.8H73.3L57,93.9L73.3,122h32.5L122,93.9L105.7,65.8z M98.2,109H80.8L72,93.9l8.7-15.1h17.5l8.7,15.1
		L98.2,109z"/>
	<path class="st3" d="M105.7,56.2L122,28.1L105.7,0H73.3L57,28.1l16.2,28.1H105.7z M80.8,13h17.5l8.7,15.1l-8.7,15.1H80.8L72,28.1
		L80.8,13z"/>
</g>
</svg>
