<svg version="1.1" id="Layer_1" xmlns="http://www.w3.org/2000/svg" xmlns:xlink="http://www.w3.org/1999/xlink" x="0px" y="0px"
	 width="124.69px" height="137.159px" viewBox="0 0 124.69 137.159" enable-background="new 0 0 124.69 137.159"
	 xml:space="preserve">
<rect x="6.176" y="6.09" fill="#FFFFFF" width="112.338" height="121.136"/>
<g>
	<defs>
		<rect id="SVGID_1_" width="124.691" height="137.159"/>
	</defs>
	<clipPath id="SVGID_2_">
		<use xlink:href="#SVGID_1_"  overflow="visible"/>
	</clipPath>
	<path clip-path="url(#SVGID_2_)" fill="#E9530E" d="M52.771,80.159c-0.43-0.307-1.068-0.459-1.911-0.459
		c-0.823,0-1.513,0.142-2.069,0.427c-0.557,0.285-1.018,0.67-1.386,1.155c-0.368,0.485-0.667,1.05-0.899,1.692
		c-0.233,0.644-0.424,1.313-0.572,2.009c-0.153,0.719-0.257,1.398-0.309,2.041c-0.054,0.645,0.006,1.203,0.179,1.678
		c0.172,0.475,0.471,0.854,0.896,1.14c0.424,0.284,1.037,0.427,1.839,0.427c0.823,0,1.512-0.143,2.069-0.427
		c0.556-0.285,1.022-0.665,1.398-1.14c0.376-0.475,0.674-1.033,0.896-1.678c0.222-0.643,0.409-1.322,0.563-2.041
		c0.139-0.652,0.241-1.302,0.305-1.945c0.063-0.644,0.02-1.207-0.129-1.693C53.491,80.86,53.201,80.465,52.771,80.159
		 M30.414,80.602c-0.21-0.2-0.521-0.348-0.933-0.442c-0.413-0.096-0.956-0.144-1.631-0.144h-2.816l-1.007,4.715h2.816
		c0.675,0,1.236-0.035,1.684-0.11c0.449-0.073,0.819-0.2,1.11-0.379c0.291-0.18,0.516-0.417,0.674-0.713
		c0.158-0.296,0.282-0.653,0.373-1.075c0.089-0.422,0.12-0.786,0.09-1.092C30.745,81.055,30.625,80.803,30.414,80.602 M0,137.159
		h124.69V0H0V137.159z M34.353,41.075l4.203,5.117l28.997-30.15l41.972,48.72h-4.935L67.371,26.274L39.104,54.597l-5.299-6.213
		L17.541,64.83h-2.375L34.353,41.075z M77.4,81.187c-0.149-0.442-0.449-0.791-0.901-1.044s-1.121-0.38-2.007-0.38
		c-0.802,0-1.49,0.139-2.066,0.411c-0.574,0.275-1.056,0.649-1.441,1.124c-0.387,0.474-0.705,1.028-0.956,1.661
		s-0.339,0.848-0.492,1.564c-0.153,0.719-0.238,1.389-0.255,2.01c-0.018,0.623,0.074,1.161,0.271,1.613
		c0.198,0.454,0.533,0.813,1.004,1.076c0.472,0.265,1.108,0.396,1.909,0.396h10.519l-1.166,5.237h-10.36
		c-2.152,0-3.916-0.185-5.293-0.554s-2.422-0.954-3.137-1.756s-1.13-1.819-1.246-3.054c-0.116-1.234,0.013-2.727,0.386-4.478
		c0.374-1.751,0.861-3.265,1.461-4.541c0.6-1.275,1.403-2.326,2.413-3.147c1.009-0.823,2.273-1.435,3.793-1.836
		c1.521-0.4,3.399-0.602,5.635-0.602c1.772,0,3.292,0.144,4.561,0.427c1.268,0.285,2.267,0.792,2.998,1.52
		c0.73,0.728,1.183,1.72,1.357,2.975c0.176,1.255,0.056,2.854-0.359,4.793l-6.814-0.095c0.135-0.632,0.237-1.232,0.307-1.803
		C77.587,82.136,77.547,81.63,77.4,81.187 M37.966,82.136c-0.356,1.667-0.874,3.028-1.552,4.082
		c-0.68,1.055-1.698,1.847-3.055,2.373l2.617,6.266h-7.879l-1.294-5.348h-3.765l-1.143,5.348h-7.214l4.211-19.714h12.024
		c1.582,0,2.894,0.127,3.937,0.38c1.043,0.254,1.837,0.66,2.383,1.219c0.545,0.559,0.87,1.281,0.976,2.168
		C38.318,79.795,38.236,80.871,37.966,82.136 M56.814,92.563c-0.98,0.833-2.219,1.45-3.718,1.852
		c-1.499,0.399-3.367,0.601-5.602,0.601c-2.237,0-4.015-0.194-5.334-0.585c-1.32-0.391-2.288-0.992-2.905-1.804
		c-0.618-0.813-0.934-1.852-0.948-3.117c-0.015-1.266,0.165-2.772,0.539-4.525c0.374-1.751,0.843-3.259,1.409-4.524
		c0.566-1.266,1.336-2.304,2.312-3.117c0.974-0.812,2.205-1.413,3.691-1.803c1.487-0.391,3.348-0.586,5.584-0.586
		c2.215,0,3.987,0.195,5.318,0.586c1.329,0.39,2.304,0.991,2.921,1.803c0.617,0.813,0.938,1.852,0.964,3.117
		c0.024,1.266-0.15,2.773-0.524,4.524c-0.365,1.71-0.83,3.191-1.393,4.446S57.793,91.729,56.814,92.563 M63.249,117.842
		c-1.392,0-2.523-0.01-3.328-0.389c-0.804-0.38-1.38-0.944-1.726-1.693c-0.347-0.749-0.502-1.677-0.466-2.784
		s0.208-2.379,0.514-3.813l2.339-10.948h7.088l-2.379,11.138c-0.217,1.014-0.174,1.8,0.129,2.358
		c0.302,0.559,0.854,0.838,1.656,0.838h3.892l3.063-14.334h7.056l-4.201,19.628H63.249z M101.296,117.832h-8.606l-3.567-8.48
		l-1.812,8.48h-7.151l4.204-19.683h7.215l-1.363,6.234c-0.036,0.169-0.091,0.401-0.165,0.696c-0.073,0.296-0.151,0.538-0.233,0.728
		l7.046-7.658h8.068l-9.607,9.431L101.296,117.832z M106.246,94.825h-8.607l-3.567-8.48l-1.812,8.48h-7.15l4.204-19.683h7.214
		l-1.362,6.234c-0.037,0.169-0.092,0.401-0.165,0.696c-0.074,0.296-0.152,0.538-0.234,0.728l7.047-7.658h8.068l-9.608,9.431
		L106.246,94.825z"/>
</g>
</svg>
