<svg xmlns="http://www.w3.org/2000/svg" viewBox="0 0 364.5 150.59"><defs><style>.cls-1{fill:#fdd22b;}</style></defs><g id="Layer_2" data-name="Layer 2"><g id="Layer_1-2" data-name="Layer 1"><polygon class="cls-1" points="167.57 50.7 149.85 50.7 149.85 38.44 172.79 38.44 172.79 27.68 136.33 27.68 136.33 83.6 149.85 83.6 149.85 60.98 167.57 60.98 167.57 50.7"/><polygon class="cls-1" points="229.1 83.6 242.62 83.6 242.62 28.08 226.17 28.08 211.38 66.75 196.28 28.08 179.75 28.08 179.75 83.6 193.27 83.6 193.27 48.8 205.37 83.6 217.08 83.6 229.1 48.88 229.1 83.6"/><path class="cls-1" d="M263.19,80.47a27.86,27.86,0,0,0,14.31,3.6q10.68,0,17.68-5.65a25.86,25.86,0,0,0,9.05-15.15H289.92a13.2,13.2,0,0,1-4.87,6,13.54,13.54,0,0,1-7.79,2.22,11.94,11.94,0,0,1-9.57-4.31q-3.63-4.32-3.63-11.59T267.69,44a11.88,11.88,0,0,1,9.57-4.35,13.54,13.54,0,0,1,7.79,2.22,13.11,13.11,0,0,1,4.87,6.09h14.31a25.74,25.74,0,0,0-9.05-15.19q-7-5.61-17.68-5.61a27.86,27.86,0,0,0-14.31,3.6,24.33,24.33,0,0,0-9.53,10.08,31.55,31.55,0,0,0-3.37,14.79,31.55,31.55,0,0,0,3.37,14.79A24.39,24.39,0,0,0,263.19,80.47Z"/><path class="cls-1" d="M336.1,52.2v9.73h17.09a14.2,14.2,0,0,1-5.14,7.55,14,14,0,0,1-8.47,2.65q-7.51,0-11.58-4.27T323.92,55.6q0-7.35,3.88-11.67a13.16,13.16,0,0,1,10.28-4.31,13.36,13.36,0,0,1,7,1.78,11,11,0,0,1,4.35,4.79h14.32a21.89,21.89,0,0,0-8.47-13.92q-6.79-5.15-17.32-5.14a29,29,0,0,0-14.67,3.6,24.74,24.74,0,0,0-9.73,10.08,31.1,31.1,0,0,0-3.44,14.79,31.1,31.1,0,0,0,3.44,14.79,24.7,24.7,0,0,0,9.77,10.08,29.41,29.41,0,0,0,14.79,3.6,28.18,28.18,0,0,0,12.38-2.61,26.11,26.11,0,0,0,8.9-6.8,27.42,27.42,0,0,0,5.06-9.1V52.2Z"/><path class="cls-1" d="M136.13,132.33c0,4-1.71,6-5.14,6q-5.93,0-5.93-7.83H111.69q0,9.72,5.38,14.91t14.55,5.17q8.48,0,13.25-4.74t4.79-13.52V94.13H136.13Z"/><path class="cls-1" d="M199.52,96.93a29.75,29.75,0,0,0-28.63,0,27,27,0,0,0-10.2,10.21,30.87,30.87,0,0,0,0,29.53,26.92,26.92,0,0,0,10.2,10.25,29.6,29.6,0,0,0,28.55,0,26.92,26.92,0,0,0,10.2-10.25,31,31,0,0,0,0-29.53A26.79,26.79,0,0,0,199.52,96.93Zm-3.84,36.66a14.93,14.93,0,0,1-21.07,0q-3.92-4.35-3.92-11.7t3.92-11.75a15,15,0,0,1,21.11,0q3.92,4.35,3.92,11.71T195.68,133.59Z"/><path class="cls-1" d="M254.53,121.25a12.37,12.37,0,0,0,7-4.39,13,13,0,0,0,2.69-8.42q0-6.89-4.66-10.6t-13.21-3.71H221V150h26q8.94,0,13.72-4t4.79-11.23a13.41,13.41,0,0,0-3-8.62A14,14,0,0,0,254.53,121.25Zm-20-16.29h8.7q7.18,0,7.19,6t-7,6h-8.85Zm9.64,34.09h-9.64V126.47h9.56a8.39,8.39,0,0,1,5.62,1.7,5.9,5.9,0,0,1,2,4.71Q251.68,139,244.16,139.05Z"/><path class="cls-1" d="M304.51,120.26a63.57,63.57,0,0,0-8.78-3.59q-3.72-1.35-5.69-2.22a10,10,0,0,1-3.29-2.25,4.72,4.72,0,0,1-1.3-3.36,4.62,4.62,0,0,1,1.46-3.72,5.7,5.7,0,0,1,3.84-1.27,5.94,5.94,0,0,1,4.39,1.62,7.53,7.53,0,0,1,2,4.39h14.63a16.92,16.92,0,0,0-6.2-12.18q-5.5-4.43-14.83-4.42a25.6,25.6,0,0,0-10.25,1.93,16.1,16.1,0,0,0-7,5.58,16.48,16.48,0,0,0-.12,17.36,15.93,15.93,0,0,0,5.77,5.06,70.16,70.16,0,0,0,8.66,3.52c2.43.84,4.32,1.57,5.69,2.18a10.75,10.75,0,0,1,3.45,2.33,4.9,4.9,0,0,1,1.38,3.56,5,5,0,0,1-1.5,3.79,5.77,5.77,0,0,1-4.12,1.43,6.94,6.94,0,0,1-4.94-1.82,7.61,7.61,0,0,1-2.25-5h-14.4A16.63,16.63,0,0,0,277.78,146q6.09,4.59,15.5,4.58a23.32,23.32,0,0,0,10.63-2.21,15.88,15.88,0,0,0,6.65-5.93,15.44,15.44,0,0,0,2.25-8.15,14.84,14.84,0,0,0-2.45-8.86A16.92,16.92,0,0,0,304.51,120.26Z"/><path class="cls-1" d="M48.7,32.58H16.23L0,60.7,16.23,88.81H48.7L64.93,60.7ZM41.19,75.81H23.74L15,60.7l8.73-15.12H41.19L49.92,60.7Z"/><path class="cls-1" d="M105.72,65.81H73.26L57,93.92,73.26,122h32.46L122,93.92ZM98.21,109H80.76L72,93.92l8.72-15.11H98.21l8.73,15.11Z"/><path class="cls-1" d="M105.72,56.23,122,28.11,105.72,0H73.26L57,28.11,73.26,56.23ZM80.76,13H98.21l8.73,15.11L98.21,43.23H80.76L72,28.11Z"/></g></g></svg>