<svg xmlns="http://www.w3.org/2000/svg" viewBox="0 0 304.74 283.46"><title>community welcome</title><path d="M207.85,218.43c-1,0-1.93,0-2.85-.09-7.84-.47-15.9-3.08-18.28-4.31-17-8.78-26.53-22.63-27.85-40.31-8.05-3.78-12.65-10.83-12.59-19.82.05-8.39,3.68-14.94,10.23-18.88a71.68,71.68,0,0,1,2-31.75C163.34,88,173.72,77,186.31,73.92a43.65,43.65,0,0,1,10.48-1.19,81.24,81.24,0,0,1,18.56,2.46,70.26,70.26,0,0,1,23,9.84c15.82,10.46,25.13,26.28,25.55,43.4a116.85,116.85,0,0,1-.74,14,22.29,22.29,0,0,1-7.42,38c-3.87,17.3-15.09,29.65-32.73,35.92A54.87,54.87,0,0,1,207.85,218.43ZM193,115c-.15.21-.33.48-.55.84-5.05,8.44-5.54,19.17-6.07,30.54-.17,3.65-.34,7.43-.67,11.19-.11,1.16-.21,2.32-.32,3.47-.23,2.47-.45,4.79-.61,7.11a23.2,23.2,0,0,0,14.6,22.94,22.84,22.84,0,0,0,8.25,1.56h0a23.7,23.7,0,0,0,18-8.43c5.25-6.16,5.76-14.11,5.88-23.86V160s1.08-14.39,1.29-17.33c.62-8.4-2.18-12.07-5-14.55A40.27,40.27,0,0,0,217.47,122a92.22,92.22,0,0,0-23-6.8C194.12,115.18,193.53,115.08,193,115Z" style="fill:#fff"/><path d="M97.12,221.32c-.12,0-11.51-.06-15.77-2.09-1.45-.7-3-1.36-4.67-2.06a74.25,74.25,0,0,1-11.31-5.63,52.85,52.85,0,0,1-20.19-24A23.88,23.88,0,0,1,29.67,172.3,24.42,24.42,0,0,1,32.22,150a61.24,61.24,0,0,1-.61-26.59A52.7,52.7,0,0,1,51.52,91.77c-1-15.58,8.66-30.41,24.55-36.64a39.9,39.9,0,0,1,14.64-2.77c16.08,0,30.5,9.7,35.89,24.14a31.69,31.69,0,0,1,1.61,6.83c18,8.81,27.86,24.88,29.21,47.85l0,.37a19.53,19.53,0,0,1,0,4l.25.2a23.45,23.45,0,0,1,8.47,22.49A25.31,25.31,0,0,1,154.07,176c-3.75,17.3-13.6,30.41-29.32,39.08a71.27,71.27,0,0,1-20.46,5.88,62.86,62.86,0,0,1-7.17.4Z" style="fill:#fff"/><path d="M119.28,205.11c13.74-7.58,21.78-19.16,24.29-34.57.29-1.83.73-2.67,2.59-3.34,9.45-3.41,12.29-16.42,4.49-22.6-3.78-3-5.11-5.85-4.49-10.21a12.71,12.71,0,0,0-.06-2.54c-1.1-18.69-8.6-33-27-40.12-.7-.27-1.24-1.55-1.43-2.45-.64-2.92-.66-6-1.69-8.81-5.13-13.73-21.47-20.39-35.77-14.78-12.55,4.91-19.63,17.07-16.8,29.2.41,1.77,0,2.43-1.37,3.31-10.12,6.56-16.82,15.61-19.33,27.5-1.77,8.4-.88,16.73,1.37,24.93a3.25,3.25,0,0,1-.86,3.7c-3.91,4.07-4.69,9-2.86,14.19a12.75,12.75,0,0,0,10.86,8.76,3.22,3.22,0,0,1,3.1,2.5A42.51,42.51,0,0,0,71.5,202a75.65,75.65,0,0,0,9.23,4.61c7,3.28,14.54,4,22.23,3A63,63,0,0,0,119.28,205.11Z" style="fill:#383b3d"/><path d="M102.14,206.24c-22.27,2.27-43.27-13.74-46-36-1-8.45,1.23-16.88,5.61-24.45.63-1.1,1.17-1.46,2.63-.81,3.09,1.37,5.63-.12,6.89-3.36a3.06,3.06,0,0,1,1.9-1.77c15.66-1.65,28.08-9.27,38.51-20.63.44-.49.82-1.17,1.37-1.39s1.53,0,1.63.34c4.94,14.58,13.85,26.64,23.71,38.2,1.42,1.66,1.59,4.74,1.64,7.17C140.42,185.14,123.58,204.06,102.14,206.24Z" style="fill:#fac794"/><path d="M52.12,160.87c-4-8.8-6.61-18-6.17-27.8.65-14.53,7.65-25.36,20-32.49,16.55-9.54,34.16-11,52.14-4.7,13.35,4.65,20.58,14.76,23,28.45a70.56,70.56,0,0,1-.78,27.87c-6.15-6.84-11.58-13.75-15.54-21.58-3-5.84-4.95-12.17-7.44-18.25-.35-.86-1.1-2.17-1.7-2.19a4,4,0,0,0-2.75,1.44c-6.09,7.31-12.79,13.88-21.3,18.39a48.49,48.49,0,0,1-20.23,5.86,4.08,4.08,0,0,1-3-1.33c-2-2.45-3.82-5.15-5.76-7.71-2.06-2.72-4.93-3.23-7.38-1.39s-2.7,4.55-.84,7.27c1.76,2.57,4.81,4.92,5.13,7.62.29,2.43-2.62,5.12-3.62,7.88C54.46,152.34,53.38,156.64,52.12,160.87Z" style="fill:#f18643"/><path d="M69.9,94c-2.32.81-2.72.28-3-1.77-1.24-9.39,5.16-19.24,15-22.89,12.26-4.56,26,1.11,30.39,12.67a27.34,27.34,0,0,1,1.35,5.75c.24,1.55-.19,2.36-2.22,1.93a67.46,67.46,0,0,0-21.07-1C83.25,89.4,76.59,91.63,69.9,94Z" style="fill:#f18643"/><path d="M144.3,163.38c-1.81-6,.73-11.61,1.29-17.49a9.22,9.22,0,0,1,5.41,9.17C150.52,159.37,148.11,162.36,144.3,163.38Z" style="fill:#f7c593"/><path d="M46.31,157.33c1.94,4.74,3.88,9.36,5.73,14,.85,2.15-.24,2.19-1.9,1.63C43.51,170.77,41.28,162.27,46.31,157.33Z" style="fill:#f7c593"/><path d="M68.2,140.06c-.44.67-.67,1.41-1.15,1.65a1.77,1.77,0,0,1-1.7-.2Q61,135.92,57,130.14a1.8,1.8,0,0,1,.31-1.72c.36-.35,1.53-.54,1.72-.31C62.1,132,65.09,136,68.2,140.06Z" style="fill:#383b3d"/><path d="M97.8,161.1a17,17,0,0,1-1.63,8.74c-.54,1.2-1.66,2.52-.2,3.84s2.85.66,4.3.1c1.14-.43,2.44-2.44,3.39-.17.79,1.9-1.14,2.78-2.48,3.27-2.58,1-5.38,1.36-7.63-.75S91.74,171.42,93,169a13.08,13.08,0,0,0,.8-10.78c-.4-1.15-1-2.84.62-3.34,2-.6,2.09,1.28,2.43,2.63S97.57,160.24,97.8,161.1Z" style="fill:#434241"/><path d="M111.38,142.73a32.82,32.82,0,0,1,8.91.78c1.74.47,2.85,1.37,2.29,3.26-.48,1.63-1.57.89-3.72.51a31.4,31.4,0,0,0-9.53-.32c-1.87.24-2.52,1.28-2.79-.44a2.62,2.62,0,0,1,2-3.24A26.91,26.91,0,0,1,111.38,142.73Z" style="fill:#434241"/><path d="M78.93,158.56c3.41-.47,6.34,1.57,6.68,4.3.12.93.18,1.9-.88,2.27A1.44,1.44,0,0,1,82.66,164,2.51,2.51,0,0,0,80,161.76c-1.79,0-2.25,1.32-2.45,2.85a1.48,1.48,0,0,1-1.85,1.46c-1.08-.22-1.37-1.13-1.33-2.07A5.41,5.41,0,0,1,78.93,158.56Z" style="fill:#464543"/><path d="M121,159.4a1.57,1.57,0,0,1-.88,1.93c-1,.44-1.54-.08-2.15-.94-2.44-3.51-3.59-3.42-5.17.4-.39,1-.74,1.68-1.79,1.53s-1.41-1-1.47-2c-.14-2.66,2.41-5.35,5.35-5.61S120.85,156.74,121,159.4Z" style="fill:#464543"/><path d="M100.15,183.29c2.69-.28,5.37-.62,8.07-.84,3.71-.3,5.45,1.22,5.81,5,.67,6.75-5.33,13.06-12.9,13.57s-14.46-4.67-14.79-11.15c-.15-3.09,1.27-5.19,4.6-5.55Zm1.08,14.42c5.14-.53,9.54-4.58,9.7-8.93.08-2.06-.28-3.54-3-3.19-5.24.66-10.5,1.2-15.77,1.68-2.54.24-2.93,1.54-2.31,3.7C91.14,195.29,96.06,198.25,101.23,197.71Z" style="fill:#434241"/><path d="M101.23,197.71c-5.17.54-10.09-2.42-11.35-6.74-.62-2.16-.23-3.46,2.31-3.7,5.27-.48,10.53-1,15.77-1.68,2.69-.35,3.05,1.13,3,3.19C110.77,193.13,106.37,197.18,101.23,197.71Z" style="fill:#fbfbfb"/><path d="M79.85,145.87a32.24,32.24,0,0,0-8.55,2.64c-1.6.82-2.5,1.94-1.56,3.66.81,1.5,1.73.54,3.75-.28a31.34,31.34,0,0,1,9.25-2.31c1.88-.16,2.73.72,2.63-1a2.62,2.62,0,0,0-2.62-2.75A27.25,27.25,0,0,0,79.85,145.87Z" style="fill:#434241"/><path d="M174.4,156.61c.66-11,0-35.13,2.8-45.82,4.45-17.29,15.5-18.16,32.64-12.07,6,2.14,13.35,10.13,19.32,12.42,1.59.61,3.37,1.26,4.88.7,3.76-1.37,5.16.79,6.62,3.56a33.07,33.07,0,0,1,4.18,18c-.62,9-1.32,18.07-2,27.1-2.44.91-3,3.42-4.28,5.25-3.68,5.13-8.44,5.9-13.34,2a8.34,8.34,0,0,0-2.53-1.35c-9.12-3-18.57-2.91-28-2.87a13.16,13.16,0,0,0-5.59,1.48c-5.47,2.58-9,1.25-11.83-4.2C176.5,159.36,176.63,157.16,174.4,156.61Zm19.73-36.1c-.94,0-2.88.08-4.81.26a21,21,0,0,0-3.67.7c-1.94.54-4,1.23-3.13,3.9.71,2.25,1.91,4.15,4.81,3.36a25.93,25.93,0,0,1,9.48-.79c1.85.19,2.79-.74,3.16-2.53C200.66,122.13,199.48,120.91,194.13,120.51Zm15.39,24.24c-.08-1-.23-2.48-.34-4s.14-3.52-2.09-3.25c-1.87.22-1.51,2.14-1.3,3.44a14.16,14.16,0,0,1-2.89,11.35c-1.79,2.33-2.72,5.05-.74,7.69s5.06,2.77,8,2.24c1.53-.27,3.75-.84,3.26-3-.58-2.59-2.35-.7-3.64-.45-1.65.32-3.34.68-4.58-.92s.14-2.88.95-4.06A18.27,18.27,0,0,0,209.52,144.75Zm16.62-22.07a30.53,30.53,0,0,0-3.14,0,2.84,2.84,0,0,0-2.73,3.08c0,1.88.68,3.4,2.72,3.51a33.85,33.85,0,0,1,10.1,2.13c2.22.82,3.42-.7,4.24-2.35.95-1.9-.06-3.08-1.83-3.9A35.23,35.23,0,0,0,226.14,122.68Zm-36.25,15.79a5.85,5.85,0,0,0-5.87,4.95,1.9,1.9,0,0,0,1,2.46,1.61,1.61,0,0,0,2.25-1.21c.5-1.6,1.24-2.91,3.15-2.58a2.72,2.72,0,0,1,2.38,2.93,1.57,1.57,0,0,0,2,1.56c1.2-.2,1.32-1.24,1.37-2.26C196.34,141.35,193.6,138.62,189.89,138.47Zm44.71,8.85c.33-2.87-2.41-5.86-5.63-6.14s-6.42,2.11-6.77,5c-.13,1.08.1,2,1.19,2.39s1.6-.35,2.2-1.29c2.41-3.78,3.65-3.65,5.59.55.48,1,.94,1.69,2.11,1.41A1.7,1.7,0,0,0,234.6,147.32Zm-50.89,10.17c2.38,4.13,6.61,4.44,10.07.08C189.92,159.36,186.94,158,183.71,157.49Zm38.53,2.5c4.16,4.47,7.4,4.58,10.54.75C229.26,161.8,226.26,160.9,222.24,160Z" style="fill:#fbd7af"/><path d="M252.54,128.7c.14,5.68-.61,11.49-1.09,16.88-.17,1.91-.92,2.6,1.31,3.59,5.21,2.31,7.62,7.23,6.61,12.19-1.12,5.47-4.71,8.56-10.93,9-2.08.14-2.72.77-3,2.88-2,16.23-10.94,27-26.27,32.43a46.12,46.12,0,0,1-13.5,1.37A47.62,47.62,0,0,1,191.92,204c-14.72-7.6-22.43-19.52-21.84-36.35.06-1.6-.07-2.34-2-2.74-7.06-1.43-10.5-5.2-10.47-10.89,0-6.1,3.16-9.79,10.12-11.21,2.51-.51,1.51-1.69,1.22-2.94-2.5-10.77-2.93-22.5.42-33.15,3-9.49,9.51-19.23,19.67-21.75,7.39-1.83,16.38-.4,23.75,1.31a59.39,59.39,0,0,1,19.29,8.26C243.72,102.19,252.2,114.45,252.54,128.7Zm-9.69,31.83q.63-8.49,1.27-17c.69-9.39-1.59-17.56-8.84-23.91a51.11,51.11,0,0,0-13.22-8A104.21,104.21,0,0,0,196.2,104c-2.53-.4-5.2-.7-7.59.24-2.61,1-4.45,3.37-5.89,5.77-8.42,14.06-6.94,30.93-8.32,46.57-.32,3.6-.7,7.21-.94,10.82a34.39,34.39,0,0,0,60.8,24.17C242,182.51,242.71,171.64,242.85,160.53Zm-74.58,1c3,.2,4.45-1.22,3.25-3.9-.81-1.81-.68-4.46-3.22-5.33a1.54,1.54,0,0,1-1-2,1.52,1.52,0,0,1,1.93-1.13c1.23.24,2.4,1,2.41-1.29,0-2.09-1.51-1.69-2.58-1.77a7.71,7.71,0,0,0-.75,15.41Zm77.91,1.64c.25,1.51-1.13,3.57,1.63,4,3.64.57,8.06-3.16,8.41-7.12s-3.28-8.32-7.06-8.38c-1,0-2-.19-2.2,1.23-.15,1.16.18,1.69,1.47,1.92,2.23.4,2.57,2,.62,2.89C246.44,158.92,246.69,161.14,246.18,163.14Z" style="fill:#383b3d"/><path d="M174.4,156.61c2.23.55,2.1,2.75,2.88,4.26,2.81,5.45,6.36,6.78,11.83,4.2a13.16,13.16,0,0,1,5.59-1.48c9.43,0,18.88-.12,28,2.87a8.34,8.34,0,0,1,2.53,1.35c4.9,3.87,9.66,3.1,13.34-2,1.31-1.83,1.84-4.34,4.28-5.25-.14,11.11-.83,22-8.59,31.07a34.39,34.39,0,0,1-60.8-24.17C173.7,163.82,174.08,160.21,174.4,156.61Zm33.44,12.24c-3.33-.23-6.67-.47-10-.69-3.61-.24-5.52,1.72-5.94,5.05-.88,7,5.57,13.81,13.65,14.68s15.77-4.7,16.33-12c.31-4.05-1.25-6-5.27-6.38C213.69,169.2,210.76,169.06,207.84,168.85Zm2.63,25.6c-2.75-4.42-6.32-5-10.31-1.55A13.54,13.54,0,0,1,210.47,194.45Z" style="fill:#ebc9a3"/><path d="M168.27,161.5a7.71,7.71,0,0,1,.75-15.41c1.07.08,2.59-.32,2.58,1.77,0,2.25-1.18,1.53-2.41,1.29a1.52,1.52,0,0,0-1.93,1.13,1.54,1.54,0,0,0,1,2c2.54.87,2.41,3.52,3.22,5.33C172.72,160.28,171.25,161.7,168.27,161.5Z" style="fill:#f9d5ae"/><path d="M246.18,163.14c.51-2,.26-4.22,2.87-5.46,1.95-.93,1.61-2.49-.62-2.89-1.29-.23-1.62-.76-1.47-1.92.18-1.42,1.24-1.25,2.2-1.23,3.78.06,7.4,4.37,7.06,8.38s-4.77,7.69-8.41,7.12C245.05,166.71,246.43,164.65,246.18,163.14Z" style="fill:#f4d1ab"/><path d="M194.13,120.51c5.35.4,6.53,1.62,5.84,4.9-.37,1.79-1.31,2.72-3.16,2.53a25.93,25.93,0,0,0-9.48.79c-2.9.79-4.1-1.11-4.81-3.36-.83-2.67,1.19-3.36,3.13-3.9a21,21,0,0,1,3.67-.7C191.25,120.59,193.19,120.56,194.13,120.51Z" style="fill:#40403f"/><path d="M209.52,144.75a18.27,18.27,0,0,1-3.38,9c-.81,1.18-2.25,2.37-.95,4.06s2.93,1.24,4.58.92c1.29-.25,3.06-2.14,3.64.45.49,2.18-1.73,2.75-3.26,3-2.93.53-6,.44-8-2.24s-1-5.36.74-7.69a14.16,14.16,0,0,0,2.89-11.35c-.21-1.3-.57-3.22,1.3-3.44,2.23-.27,2,1.76,2.09,3.25S209.44,143.79,209.52,144.75Z" style="fill:#434241"/><path d="M226.14,122.68a35.23,35.23,0,0,1,9.36,2.52c1.77.82,2.78,2,1.83,3.9-.82,1.65-2,3.17-4.24,2.35a33.85,33.85,0,0,0-10.1-2.13c-2-.11-2.76-1.63-2.72-3.51a2.84,2.84,0,0,1,2.73-3.08A30.53,30.53,0,0,1,226.14,122.68Z" style="fill:#434241"/><path d="M189.89,138.47c3.71.15,6.45,2.88,6.31,5.85,0,1-.17,2.06-1.37,2.26a1.57,1.57,0,0,1-2-1.56,2.72,2.72,0,0,0-2.38-2.93c-1.91-.33-2.65,1-3.15,2.58a1.61,1.61,0,0,1-2.25,1.21,1.9,1.9,0,0,1-1-2.46A5.85,5.85,0,0,1,189.89,138.47Z" style="fill:#464543"/><path d="M234.6,147.32a1.7,1.7,0,0,1-1.31,1.89c-1.17.28-1.63-.38-2.11-1.41-1.94-4.2-3.18-4.33-5.59-.55-.6.94-1.1,1.65-2.2,1.29s-1.32-1.31-1.19-2.39c.35-2.86,3.59-5.25,6.77-5S234.93,144.45,234.6,147.32Z" style="fill:#464543"/><path d="M183.71,157.49c3.23.48,6.21,1.87,10.07.08C190.32,161.93,186.09,161.62,183.71,157.49Z" style="fill:#f4b486"/><path d="M222.24,160c4,.91,7,1.81,10.54.75C229.64,164.57,226.4,164.46,222.24,160Z" style="fill:#f4b486"/><path d="M207.84,168.86c2.92.2,5.85.34,8.76.62,4,.38,5.58,2.33,5.27,6.38-.56,7.33-8.15,12.91-16.33,12s-14.53-7.71-13.65-14.68c.42-3.33,2.33-5.29,5.94-5.05C201.17,168.38,204.51,168.62,207.84,168.86Zm-1.57,15.58c5.58.4,11-3.08,12-7.69.48-2.19.37-3.83-2.57-4-5.71-.28-11.42-.7-17.13-1.18-2.76-.23-3.42,1.08-3.16,3.5C196,180,200.66,184,206.27,184.44Z" style="fill:#434241"/><path d="M210.47,194.45a13.54,13.54,0,0,0-10.31-1.55C204.15,189.49,207.72,190,210.47,194.45Z" style="fill:#f4b486"/><path d="M206.27,184.44c-5.61-.4-10.31-4.49-10.83-9.34-.26-2.42.4-3.73,3.16-3.5,5.71.48,11.42.9,17.13,1.18,2.94.14,3.05,1.78,2.57,4C217.3,181.36,211.85,184.84,206.27,184.44Z" style="fill:#fbfbfb"/></svg>