<svg xmlns="http://www.w3.org/2000/svg" viewBox="0 0 283.46 283.46"><title>create bio details &amp;amp; job advert</title><circle cx="141.73" cy="141.73" r="141.73" style="fill:#ededed"/><rect x="86.3" y="67.37" width="110.86" height="148.73" rx="3.5" style="fill:#fff"/><path d="M193.66,70.87V212.6H89.8V70.87H193.66m0-7H89.8a7,7,0,0,0-7,7V212.6a7,7,0,0,0,7,7H193.66a7,7,0,0,0,7-7V70.87a7,7,0,0,0-7-7Z" style="fill:#3c3c3b"/><line x1="119.28" y1="93.18" x2="169.92" y2="93.18" style="fill:#fff;stroke:#40b3e7;stroke-linejoin:round;stroke-width:6px"/><line x1="108.12" y1="107.77" x2="182.8" y2="107.77" style="fill:#fff;stroke:#40b3e7;stroke-linejoin:round;stroke-width:6px"/><line x1="108.12" y1="125.17" x2="182.8" y2="125.17" style="fill:#fff;stroke:#40b3e7;stroke-linejoin:round;stroke-width:6px"/><path d="M103.74,181c6.56.11,10.76-6.84,13.06-13,1.46-3.88,2.74-8.13,1.61-12.12s-5.66-7.26-9.45-5.57-4.44,7-3.95,11.17a54.69,54.69,0,0,0,3,12.61c2.11,5.73,5.75,11.56,11.6,13.29,6.41,1.9,13.9-2.6,15.41-9.11.79-3.4-.59-7.81-4-8.41-3.91-.68-6.67,5-4.42,8.25s7.3,3.57,10.71,1.55,5.49-5.72,6.95-9.41,2.52-7.59,4.64-11c0,7.05,5.36,13.21,11.66,16.37s13.49,3.92,20.51,4.62" style="fill:#fff;stroke:#40b3e7;stroke-linejoin:round;stroke-width:6px"/></svg>