<svg xmlns="http://www.w3.org/2000/svg" viewBox="0 0 283.46 283.46"><title>discounts</title><polygon points="115.42 211.88 80.06 213.09 75.11 178.06 47.25 156.26 65.98 126.24 58.64 91.63 92.29 80.67 108.92 49.44 141.73 62.67 174.55 49.44 191.18 80.67 224.82 91.63 217.49 126.24 236.22 156.26 208.35 178.06 203.4 213.09 168.04 211.88 141.73 235.54 115.42 211.88" style="fill:#fff"/><polygon points="120.59 197.69 92.17 198.66 88.19 170.51 65.8 152.99 80.85 128.86 74.96 101.05 102 92.24 115.36 67.14 141.73 77.78 168.1 67.14 181.47 92.24 208.51 101.05 202.61 128.86 217.66 152.99 195.27 170.51 191.29 198.66 162.88 197.69 141.73 216.7 120.59 197.69" style="fill:#f18643"/><path d="M166.72,70.94l12.67,23.78L205,103.06l-5.58,26.37,14.26,22.86-21.22,16.6-3.77,26.68-26.93-.92-20,18-20-18-26.94.92L91,168.89l-21.23-16.6L84,129.43l-5.59-26.37,25.62-8.34,12.67-23.78,25,10.07,25-10.07m2.76-7.59-5,2-22.75,9.17L119,65.37l-5-2-2.53,4.77L99.92,89.76l-23.33,7.6L71.46,99l1.12,5.28,5.09,24-13,20.81-2.85,4.58L66.08,157l19.31,15.12,3.43,24.28.76,5.34,5.39-.18,24.51-.84,18.24,16.4,4,3.61,4-3.61L164,200.73l24.51.84,5.4.18.75-5.34,3.43-24.28L217.39,157l4.25-3.32-2.86-4.58-13-20.81,5.08-24L212,99l-5.13-1.67-23.32-7.6L172,68.12l-2.54-4.77Z" style="fill:#3c3c3b"/><path d="M129.08,138.94a11.51,11.51,0,0,1-4.16-.74,11.17,11.17,0,0,1-3.34-2,8.91,8.91,0,0,1-2.21-2.95,8.87,8.87,0,0,1,0-7.32,8.91,8.91,0,0,1,2.21-2.95,11.19,11.19,0,0,1,3.34-2,11.51,11.51,0,0,1,4.16-.73,11.38,11.38,0,0,1,4.1.73,11.14,11.14,0,0,1,3.33,2,9.28,9.28,0,0,1,2.24,2.95,8.48,8.48,0,0,1,0,7.32,9.28,9.28,0,0,1-2.24,2.95,11.12,11.12,0,0,1-3.33,2A11.39,11.39,0,0,1,129.08,138.94Zm-5.55,20,16.7-18.82L155,120.24l4.89,4.42-16,18.23-15.52,20.48Zm5.55-25.31a2.4,2.4,0,0,0,2-1.18,5.24,5.24,0,0,0,0-5.66,2.29,2.29,0,0,0-4,0,5.29,5.29,0,0,0,0,5.66A2.4,2.4,0,0,0,129.08,133.63Zm25.31,29.74a11.51,11.51,0,0,1-4.16-.74,11,11,0,0,1-3.34-2,8.81,8.81,0,0,1-2.21-3,8.85,8.85,0,0,1,0-7.31,8.81,8.81,0,0,1,2.21-2.95,11,11,0,0,1,3.34-2,11.51,11.51,0,0,1,4.16-.74,11.39,11.39,0,0,1,4.1.74,10.82,10.82,0,0,1,3.33,2,9,9,0,0,1,2.24,2.95,8.46,8.46,0,0,1,0,7.31,9,9,0,0,1-2.24,3,10.82,10.82,0,0,1-3.33,2A11.39,11.39,0,0,1,154.39,163.37Zm0-5.31a2.42,2.42,0,0,0,2-1.18,5.26,5.26,0,0,0,0-5.67,2.29,2.29,0,0,0-4,0,5.31,5.31,0,0,0,0,5.67A2.42,2.42,0,0,0,154.39,158.06Z" style="fill:#fff"/></svg>