<svg xmlns="http://www.w3.org/2000/svg" viewBox="0 0 283.46 283.46"><title>end of week review</title><circle cx="141.73" cy="141.73" r="141.73" style="fill:#ededed"/><path d="M87.62,144.83c-3.13,0-5.64-1.89-8.67-4.92Q66.6,127.58,54.28,115.24c-3.51-3.52-4.39-7.22-2.61-11,1.66-3.53,4.62-5.32,9-5.46H61c3,0,5.32,2.32,7,4,1.9,1.91,3.82,3.8,5.73,5.69,4.42,4.37,9,8.9,13.35,13.52.21.22.38.39.52.52q.24-.21.63-.6c15.46-15.63,31.27-31.42,46.57-46.68l8.87-8.86A22.12,22.12,0,0,1,148,62.72a9.18,9.18,0,0,1,4.64-1.31,9.06,9.06,0,0,1,6.88,3.38A8.75,8.75,0,0,1,160,75.92a17.1,17.1,0,0,1-2.41,2.71l-.52.52Q126.61,109.59,96.18,140C93.28,142.89,90.71,144.83,87.62,144.83Z" style="fill:#f18643"/><path d="M152.63,64.91a5.57,5.57,0,0,1,4.22,2.16,5.32,5.32,0,0,1,.22,6.88,20.91,20.91,0,0,1-2.52,2.73L93.71,137.52c-2.54,2.54-4.32,3.81-6.09,3.81s-3.6-1.3-6.2-3.9q-12.35-12.32-24.66-24.66c-2-2-3.28-4.17-1.92-7.06,1-2.15,2.67-3.35,6-3.46H61c1.49,0,3,1.47,4.54,3,6.35,6.37,12.84,12.6,19,19.14,1.2,1.27,2.12,1.88,3.05,1.88s1.91-.65,3.14-1.9q27.46-27.78,55.2-55.3a19.85,19.85,0,0,1,3.87-3.3,5.71,5.71,0,0,1,2.88-.84m0-7a12.6,12.6,0,0,0-6.4,1.79,24.46,24.46,0,0,0-5.07,4.18l-.22.21-8.56,8.54c-14.7,14.68-29.88,29.83-44.77,44.87-3.79-4-7.68-7.8-11.47-11.54-1.9-1.89-3.81-3.77-5.7-5.67s-5-5-9.49-5h-.39c-7.18.25-10.52,4.2-12.06,7.48-3.24,6.91.68,12.35,3.3,15l24.67,24.68c2.88,2.87,6.35,5.94,11.15,5.94,4.55,0,8-2.82,11-5.86L159.5,81.62l.49-.48a21,21,0,0,0,2.87-3.25,12.25,12.25,0,0,0-.69-15.37,12.52,12.52,0,0,0-9.54-4.61Z" style="fill:#3c3c3b"/><path d="M141.26,210.15a8.59,8.59,0,0,1-6.23-2.82c-5.78-6-.35-12.35,1.46-14.16l5.76-5.81c5.86-5.91,11.92-12,18.06-17.89a13.14,13.14,0,0,0,.92-1,10.05,10.05,0,0,0-.78-.81c-6.09-5.77-12.07-11.82-17.86-17.67l-6-6c-2.8-2.81-4.2-5.64-4.18-8.43a9.17,9.17,0,0,1,8.9-8.7c2.83,0,5.68,1.35,8.26,3.89l3,3c7,6.86,14.17,14,21,21.18.24.25.44.44.59.57.18-.16.43-.4.77-.75,4.52-4.69,9.2-9.34,13.73-13.85,3.37-3.36,6.86-6.83,10.24-10.27,2.51-2.56,5-3.8,7.62-3.8a9.3,9.3,0,0,1,6.07,2.45,8.18,8.18,0,0,1,3,6c.12,2.83-1.21,5.72-3.86,8.38L207,148.51c-6.48,6.53-13.19,13.28-19.93,19.8l.06.06c6.15,6,12.28,12.15,18.22,18.11q2.94,3,5.89,5.91l.14.15c1.78,1.77,4.21,4.21,4.29,8.32v.24a9,9,0,0,1-5.16,8,9.36,9.36,0,0,1-4.07,1,9.88,9.88,0,0,1-7-3.29q-3.66-3.68-7.36-7.31c-5.52-5.46-11.23-11.1-16.65-16.89a8.73,8.73,0,0,0-1.34-1.23,8.9,8.9,0,0,0-1.42,1.3c-5.68,6.05-11.68,12-17.47,17.68l-5.9,5.84C146.67,208.83,144,210.15,141.26,210.15Z" style="fill:#40b3e7"/><path d="M206.6,130.33a5.87,5.87,0,0,1,3.81,1.62c2.76,2.34,2.31,5.86-1,9.22-8.2,8.25-16.36,16.55-24.72,24.64-2.14,2.07-1.93,3.13.06,5.07,8.12,7.9,16.07,16,24.07,24,1.65,1.64,3.36,3.27,3.41,6A5.46,5.46,0,0,1,209,206a5.86,5.86,0,0,1-2.57.64,6.5,6.5,0,0,1-4.55-2.26c-8-8-16.2-15.86-23.93-24.12-1.54-1.65-2.73-2.44-3.91-2.44s-2.41.85-4,2.5c-7.54,8-15.48,15.67-23.29,23.44-1.95,1.94-3.82,2.91-5.55,2.91a5.11,5.11,0,0,1-3.71-1.75c-2.54-2.63-2.09-5.74,1.42-9.26,7.88-7.91,15.68-15.92,23.75-23.63,2.72-2.6,3.08-4.07.14-6.85-8.11-7.68-15.88-15.71-23.77-23.62-3.69-3.71-4.12-7-1.36-9.65a5.11,5.11,0,0,1,3.61-1.51c1.83,0,3.85,1,5.8,2.88,8.06,8,16.17,15.87,24,24.08,1.25,1.31,2.21,1.91,3.13,1.91s2-.75,3.29-2.07c7.86-8.15,16-16,23.95-24.1,1.66-1.69,3.34-2.75,5.12-2.75m0-7h0c-3.55,0-7,1.63-10.12,4.85-3.36,3.42-6.83,6.88-10.19,10.22-4,3.94-8,8-12,12.1-6.31-6.56-12.84-13-19.18-19.24l-3-3c-4.1-4-8.1-4.9-10.72-4.9a12.64,12.64,0,0,0-12.4,12.17c0,3.76,1.72,7.44,5.2,10.93,2,2,4,4,6,6,5.23,5.29,10.62,10.74,16.12,16-5.6,5.41-11.12,11-16.48,16.38q-2.87,2.91-5.75,5.8a16.08,16.08,0,0,0-4.94,8.86,12.66,12.66,0,0,0,12.19,14.09c3.67,0,7.2-1.67,10.49-5q2.94-2.92,5.9-5.83c5.43-5.36,11-10.89,16.41-16.57,5.1,5.39,10.41,10.64,15.55,15.72,2.41,2.38,4.91,4.85,7.33,7.28a13.28,13.28,0,0,0,9.51,4.32A12.93,12.93,0,0,0,212,212.3a12.51,12.51,0,0,0,7.15-11v-.49c-.1-5.53-3.36-8.79-5.31-10.74l-.15-.14L207.86,184c-5.14-5.17-10.43-10.49-15.76-15.71,5.9-5.76,11.73-11.64,17.41-17.35q2.4-2.43,4.83-4.86c4.23-4.25,5-8.33,4.87-11a11.72,11.72,0,0,0-4.28-8.5,12.68,12.68,0,0,0-8.33-3.28Z" style="fill:#3c3c3b"/></svg>