<svg xmlns="http://www.w3.org/2000/svg" viewBox="0 0 283.46 283.46"><title>feedback from client</title><circle cx="141.73" cy="141.73" r="141.73" style="fill:#ededed"/><path d="M157.36,204.93a219.8,219.8,0,0,1-28.09-1.49A58.29,58.29,0,0,1,79,151.87c-2.13-21.11,1.75-37.09,12.2-50.28,9-11.29,19.67-18.29,31.88-20.8a100.8,100.8,0,0,1,20.39-2.25c17.08,0,31.11,5.48,42.91,16.77s17.93,25.83,18.45,43.41c.19,6.29.14,12.66.1,18.82,0,2.8-.05,5.6-.05,8.4v3.5h-.06c0,1.62,0,3.24,0,4.86,0,7.06,0,14.35.06,21.51,0,2.33-.21,5-2.09,6.88a7.49,7.49,0,0,1-5.57,2h-.41c-3-.09-6.13-.13-9.65-.13-4.94,0-10,.09-14.85.17S162.36,204.93,157.36,204.93Zm8.78-66.85a3.34,3.34,0,0,0-2.2,1.17,3.85,3.85,0,0,0-1.15,2.68c.12,2,.76,3.29,3.65,3.5,3.24-.27,3.54-1.82,3.56-3.39s-.38-3.48-3.66-3.95Zm-24.07.11h-.14c-3.25.57-3.67,2.42-3.64,4.15a3.06,3.06,0,0,0,3,3.06l.41,0a3.78,3.78,0,0,0,3.71-3.61C145.13,139.83,143.19,138.19,142.07,138.19Zm-24.56.08c-1.75.09-3.88.76-4,3.47a3.57,3.57,0,0,0,.71,2.55,3.84,3.84,0,0,0,2.64,1h.29c1,0,2.54,0,3.42-3.49a4.08,4.08,0,0,0-1.16-2.55,2.77,2.77,0,0,0-1.82-1Z" style="fill:#40b3e7"/><path d="M143.5,82c14.66,0,28.42,4.25,40.49,15.8,11.69,11.19,16.91,25.12,17.38,41,.26,9,0,18.08,0,27.12h-.06c0,10-.07,19.94.05,29.91,0,3.17-.47,5.37-4.16,5.37h-.3c-3.25-.1-6.5-.14-9.75-.14-9.94,0-19.9.35-29.84.35A218.4,218.4,0,0,1,129.71,200a54.86,54.86,0,0,1-47.19-48.44C80.79,134.41,82.73,118,94,103.76c7.82-9.87,17.5-17,29.83-19.54A98.52,98.52,0,0,1,143.5,82m23,66.9c4.3-.28,7-2.47,7-6.85s-2.54-6.87-6.65-7.46a4.24,4.24,0,0,0-.71,0c-3.57,0-7.07,3.81-6.85,7.56.26,4.38,2.82,6.56,7.17,6.8m-25.15,0a6.51,6.51,0,0,0,.88-.06c4.25-.57,6.38-3.3,6.76-7.06-.26-3.68-3.68-7.1-6.88-7.1a3.81,3.81,0,0,0-.75.07c-4.09.71-6.59,3.28-6.53,7.63a6.55,6.55,0,0,0,6.52,6.52m-24.18-.12c4.19,0,6.08-2.85,6.93-6.55.2-3.68-3-7.47-6.48-7.47h-.24c-4.2.22-7.13,2.72-7.33,6.8s2.26,7,6.68,7.21h.44M143.5,75h0a104.24,104.24,0,0,0-21.1,2.33c-13,2.67-24.44,10.09-33.91,22-11,14-15.16,30.73-12.94,52.8a61.8,61.8,0,0,0,53.28,54.69,222.87,222.87,0,0,0,28.52,1.52c5,0,10.12-.09,15-.18s9.89-.17,14.8-.17c3.48,0,6.6,0,9.54.13h.51a10.85,10.85,0,0,0,8.06-3.07c3.17-3.2,3.12-7.53,3.09-9.38-.08-7.13-.06-14.41,0-21.44v-1.39h.07v-7c0-2.79,0-5.58.05-8.37,0-6.19.09-12.6-.1-18.95-.55-18.54-7.12-34-19.53-45.84S161.52,75,143.5,75Zm22.8,66.86a1.37,1.37,0,0,1,.15-.21l0,0s0,.12,0,.19l-.08,0-.12,0Z" style="fill:#3c3c3b"/></svg>