<svg xmlns="http://www.w3.org/2000/svg" viewBox="0 0 283.46 283.46"><title>hiring candidate</title><circle cx="141.73" cy="141.73" r="141.73" style="fill:#ededed"/><rect x="67.87" y="90.09" width="147.73" height="103.28" rx="11.5" style="fill:#f18643"/><path d="M204.09,93.09a8.51,8.51,0,0,1,8.51,8.51v80.27a8.5,8.5,0,0,1-8.51,8.5H79.37a8.49,8.49,0,0,1-8.5-8.5V101.6a8.5,8.5,0,0,1,8.5-8.51H204.09m0-6H79.37a14.52,14.52,0,0,0-14.5,14.51v80.27a14.51,14.51,0,0,0,14.5,14.5H204.09a14.52,14.52,0,0,0,14.51-14.5V101.6a14.53,14.53,0,0,0-14.51-14.51Z" style="fill:#3c3c3b"/><polyline points="80.33 104.44 125.06 140.98 141.32 153.91 156.79 140.98 200.59 104.34" style="fill:none;stroke:#3c3c3b;stroke-miterlimit:10;stroke-width:6px"/><line x1="80.33" y1="179.08" x2="125.06" y2="140.98" style="fill:none;stroke:#3c3c3b;stroke-miterlimit:10;stroke-width:6px"/><line x1="200.59" y1="179.08" x2="156.79" y2="140.98" style="fill:none;stroke:#3c3c3b;stroke-miterlimit:10;stroke-width:6px"/></svg>