<svg xmlns="http://www.w3.org/2000/svg" viewBox="0 0 283.46 283.46"><title>intake session with client</title><circle cx="141.73" cy="141.73" r="141.73" style="fill:#ededed"/><path d="M143,233.76c-9.62,0-19.51-2.54-21.33-3.35C99.71,220.68,88.16,204,87.33,181c-.09-2.53-.49-2.95-3-3.2-9.14-.91-15.26-6.59-16-14.82-.81-9.38,4.13-16,13.54-18.27,1.44-.34,1.73-.7,1.78-.8s-.12-.89-.35-1.46c-.12-.31-.24-.64-.35-1l-.32-1c-3.52-11-7.15-22.41-7.13-34.51.06-29.36,19.3-51.15,49-55.5a67.48,67.48,0,0,1,9.59-.7c13.6,0,27.06,4.2,42.34,13.21A28.55,28.55,0,0,0,189.12,67c10.65.89,14.38,4.13,16.62,14.45a59.39,59.39,0,0,1,1.31,8.33c.26,3.35.39,6.76.51,10,.06,1.4.11,2.8.17,4.19A126.27,126.27,0,0,1,202,142.37c-.61,1.9-.53,1.93,1.47,2.74,8.05,3.23,12.39,9.75,11.61,17.45-.86,8.59-6.29,13.82-15.69,15.11-2.56.35-2.73,1.15-2.87,3.61-1.34,23.12-12.86,39.6-34.24,49a60.09,60.09,0,0,1-18.76,3.5Z" style="fill:#3c3c3b"/><path d="M134.13,50.7c15.14,0,28.77,5.37,41.83,13.07A29.53,29.53,0,0,0,189,68c10.32.87,13.59,3.8,15.73,13.67a59.9,59.9,0,0,1,1.3,8.19c.36,4.73.46,9.48.67,14.22a125.59,125.59,0,0,1-5.65,38c-.83,2.59-.21,3.05,2.06,4,7.76,3.11,11.7,9.3,11,16.42-.8,7.94-5.76,13-14.83,14.22-3.23.44-3.58,1.81-3.74,4.54-1.32,22.91-12.72,38.95-33.64,48.12a58.61,58.61,0,0,1-18.37,3.42H143c-9.49,0-19.29-2.54-20.92-3.26-21-9.31-32.91-25.22-33.75-48.58-.11-3-.88-3.86-3.93-4.16-8.88-.89-14.41-6.26-15.07-13.91-.74-8.66,3.66-15,12.79-17.22,3.83-.9,2.44-2.49,1.79-4.51-3.66-11.48-7.42-22.91-7.4-35.21,0-29.14,19.14-50.27,48.17-54.52a65.34,65.34,0,0,1,9.45-.69m0-2h0a68.12,68.12,0,0,0-9.74.71C94.15,53.84,74.57,76,74.51,105.9c0,12.25,3.63,23.72,7.17,34.81l.33,1c.12.38.25.73.37,1s.17.43.24.63a5.77,5.77,0,0,1-1,.3C71.71,146,66.49,153.09,67.34,163c.75,8.74,7.21,14.76,16.86,15.73,2.06.2,2.06.2,2.13,2.24.84,23.5,12.6,40.44,34.94,50.34,1.87.83,12,3.43,21.73,3.43h.57a60.17,60.17,0,0,0,19.16-3.59c21.75-9.54,33.47-26.3,34.83-49.83.13-2.33.21-2.43,2-2.68,9.77-1.34,15.64-7,16.55-16,.82-8.17-3.75-15.07-12.23-18.48a10,10,0,0,1-1.15-.51,5.39,5.39,0,0,1,.25-1,127,127,0,0,0,5.74-38.57V104c-.06-1.4-.11-2.8-.17-4.19-.12-3.31-.25-6.72-.51-10.09a62.94,62.94,0,0,0-1.33-8.47C204.38,70.52,200.29,67,189.2,66a27.55,27.55,0,0,1-12.22-4c-15.44-9.11-29.06-13.35-42.85-13.35Z" style="fill:#f6f6f6"/><path d="M93.33,169.27c-.17-17.18-1.88-34.52,1.16-51.49,4.49-25,21-37.79,45.82-30.9,8.74,2.42,17.37,5.24,26,7.9,2.31.71,4.9,1.43,7,.51,5.18-2.31,7.38.61,9.72,4.38,4.8,7.72,7.69,16,7.7,25.11,0,14.44-.1,28.87-.16,43.3-3.94,2.41-5.4,6.92-8.49,10-5.65,5.71-13.79,11.26-22.63,4.1a15,15,0,0,0-10.36-3.43,8.16,8.16,0,0,1-5.94-2.09c2.56-.85,6.47-1.35,5.6-4.74-1.05-4.07-4.09-.41-6.26-.34-1.9.07-3.93.78-5.5-1.08-1.72-2.06-.31-3.86.68-5.38A24.14,24.14,0,0,0,141,145.35c-.48-2-.41-4.32-3.27-3.75-2.47.49-2,2.8-1.56,4.39,1.69,6.58.08,12.34-3.41,18-2.73,4.41-2.16,8.68,2.34,11.93-.59.76-1.17,2.19-1.77,2.2-6.13.11-10.86,3.84-16.24,5.89-5.59,2.12-13.54-2.15-18.75-9.33C96.85,172.7,96.23,169.93,93.33,169.27Zm24-57.79a41.75,41.75,0,0,0-11.54,2.21c-2.71.92-5.46,2.15-4,5.86,1.24,3.15,3.15,5.63,7.16,4.22a36.44,36.44,0,0,1,13.34-2c2.67.08,3.85-1.36,4.18-3.93C127.06,113.09,125.29,111.51,117.29,111.48ZM174,123.27c3,.58,4.63-1.4,5.68-3.84.87-2.05.37-4-1.87-4.88a36.92,36.92,0,0,0-19-2.78c-2.51.33-3.71,2.09-3.59,4.61s1.27,4.77,4.17,4.72A42.22,42.22,0,0,1,174,123.27Zm-.92,22.47h.06c0-1,0-2,0-3,.14-2.74-.86-4.86-3.8-4.9s-4.24,1.9-4.31,4.62a56.07,56.07,0,0,0,.21,7.67,3.69,3.69,0,0,0,4.08,3.45c2.3-.05,3.59-1.44,3.74-3.74C173.16,148.5,173.09,147.12,173.09,145.74Zm-54.58.12h-.15c0-1.58.13-3.16,0-4.72a3.42,3.42,0,0,0-4.14-3.27c-3.78.63-4.13,3.74-3.89,6.87.25,3.33-1.29,7.56,3.65,8.81,2.18.55,3.88-.67,4.3-3A35.2,35.2,0,0,0,118.51,145.86Z" style="fill:#fcd7b0"/><path d="M93.33,169.27c2.9.66,3.52,3.43,5,5.41,5.21,7.18,13.16,11.45,18.75,9.33,5.38-2,10.11-5.78,16.24-5.89.6,0,1.18-1.44,1.77-2.2l8.11.79a8.16,8.16,0,0,0,5.94,2.09,15,15,0,0,1,10.36,3.43c8.84,7.16,17,1.61,22.63-4.1,3.09-3.13,4.55-7.64,8.49-10,2.23,22.91-4.16,42-25,54.1-31.59,18.34-72.27-5.13-72.55-41.66C93,176.77,93.24,173,93.33,169.27Zm48.92,32c4.58.17,9-1.4,13.11-3.81,1.46-.85,2.6-2.09,1.89-3.85-.82-2-2.54-1.51-3.94-.71-7.66,4.39-15.26,4.6-22.89,0-1.29-.79-2.84-1-3.67.36s-.31,3,1.27,4A25.13,25.13,0,0,0,142.25,201.3Z" style="fill:#ecc9a3"/><path d="M85.55,172.05c-6.87,0-11.72-5.08-11.46-11.39.24-6,5.48-10.91,11.23-10.53,1.5.1,3.14-.15,3.18,2.35,0,2.34-.75,2.61-2.76,2.08-1.4-.36-2.81,0-3.14,1.76A2.18,2.18,0,0,0,84.31,159c3.56,1.1,3.84,4.75,5,7.28C90.8,169.45,89.86,172.64,85.55,172.05Z" style="fill:#f9d5ae"/><path d="M195.46,166.21c.35-1.69.11-4.27,1.28-5.4,3-2.91,7.27-5.09-.68-7-.89-.21-1-3.42,1.7-3.67a9.89,9.89,0,0,1,9.24,4.25,10.49,10.49,0,0,1,.46,12.68,10.12,10.12,0,0,1-9.48,5C194.09,171.87,196.24,168.45,195.46,166.21Z" style="fill:#f4d1ab"/><path d="M117.29,111.48c8,0,9.77,1.61,9.16,6.32-.33,2.57-1.51,4-4.18,3.93a36.44,36.44,0,0,0-13.34,2c-4,1.41-5.92-1.07-7.16-4.22-1.48-3.71,1.27-4.94,4-5.86A41.75,41.75,0,0,1,117.29,111.48Z" style="fill:#3c3c3b"/><path d="M143.17,176.71l-8.11-.79c-4.5-3.25-5.07-7.52-2.34-11.93,3.49-5.66,5.1-11.42,3.41-18-.41-1.59-.91-3.9,1.56-4.39,2.86-.57,2.79,1.79,3.27,3.75a24.14,24.14,0,0,1-3.27,19.82c-1,1.52-2.4,3.32-.68,5.38,1.57,1.86,3.6,1.15,5.5,1.08,2.17-.07,5.21-3.73,6.26.34C149.64,175.36,145.73,175.86,143.17,176.71Z" style="fill:#3c3c3b"/><path d="M174,123.27a42.22,42.22,0,0,0-14.63-2.17c-2.9.05-4-2.07-4.17-4.72s1.08-4.28,3.59-4.61a36.92,36.92,0,0,1,19,2.78c2.24.92,2.74,2.83,1.87,4.88C178.64,121.87,177.05,123.85,174,123.27Z" style="fill:#3c3c3b"/><path d="M173.09,145.74c0,1.38.07,2.76,0,4.14-.15,2.3-1.44,3.69-3.74,3.74a3.69,3.69,0,0,1-4.08-3.45,56.07,56.07,0,0,1-.21-7.67c.07-2.72,1.52-4.66,4.31-4.62s3.94,2.16,3.8,4.9c0,1,0,2,0,3Z" style="fill:#3c3c3b"/><path d="M118.51,145.86a35.2,35.2,0,0,1-.25,4.72c-.42,2.3-2.12,3.52-4.3,3-4.94-1.25-3.4-5.48-3.65-8.81-.24-3.13.11-6.24,3.89-6.87a3.42,3.42,0,0,1,4.14,3.27c.15,1.56,0,3.14,0,4.72Z" style="fill:#3c3c3b"/><path d="M142.25,201.3A25.13,25.13,0,0,1,128,197.23c-1.58-1-2.19-2.47-1.27-4s2.38-1.15,3.67-.36c7.63,4.64,15.23,4.43,22.89,0,1.4-.8,3.12-1.34,3.94.71.71,1.76-.43,3-1.89,3.85C151.22,199.9,146.83,201.47,142.25,201.3Z" style="fill:#3c3c3b"/></svg>