<svg xmlns="http://www.w3.org/2000/svg" viewBox="0 0 283.46 283.46"><title>interview process</title><circle cx="141.73" cy="141.73" r="141.73" style="fill:#ededed"/><rect x="67.87" y="73.51" width="147.73" height="147.73" rx="14.34" style="fill:#40b3e7"/><path d="M201.26,76.51A11.34,11.34,0,0,1,212.6,87.85V206.91a11.34,11.34,0,0,1-11.34,11.33H82.2a11.33,11.33,0,0,1-11.33-11.33V87.85A11.34,11.34,0,0,1,82.2,76.51H201.26m0-6H82.2A17.35,17.35,0,0,0,64.87,87.85V206.91A17.34,17.34,0,0,0,82.2,224.24H201.26a17.35,17.35,0,0,0,17.34-17.33V87.85a17.36,17.36,0,0,0-17.34-17.34Z" style="fill:#3c3c3b"/><path d="M192.69,201.15c-7-.06-14.33-.09-23.88-.09H114.62c-9.54,0-16.89,0-23.86.09h-.4a7.31,7.31,0,0,1-2.15-.18,5.34,5.34,0,0,1-.22-2c.29-23.81.2-47.74.07-72.21a6.15,6.15,0,0,1,.14-1.7,5.16,5.16,0,0,1,1.46-.14c17.32.07,34.83.1,52.11.1s34.71,0,52-.1a5.57,5.57,0,0,1,1.52.14,6.62,6.62,0,0,1,.14,1.7c-.13,24.41-.22,48.3.06,72.21a5.48,5.48,0,0,1-.21,2,7.13,7.13,0,0,1-2.16.19Z" style="fill:#fff"/><path d="M91.07,127.94c16.8.07,33.84.1,50.65.1s33.8,0,50.66-.1c-.12,23.7-.21,46.92.06,70.21-6.88-.06-14.17-.09-23.57-.09H155.29l-13.57,0-13.55,0H114.6c-9.42,0-16.71,0-23.6.09.27-23.19.19-46.45.07-70.21m-1.41-6c-3.78,0-4.62,1.33-4.6,4.86.13,24,.22,48.11-.07,72.15,0,4.69,1.77,5.2,5.37,5.2h.43q11.89-.1,23.81-.09l27.12,0,27.15,0q11.9,0,23.79.09h.43c3.61,0,5.42-.53,5.36-5.21-.29-24-.19-48.1-.06-72.16,0-3.53-.83-4.85-4.61-4.85h-.06q-26,.11-52,.1t-52-.1Z" style="fill:#3c3c3b"/><line x1="99.72" y1="87.81" x2="99.72" y2="65.22" style="fill:none;stroke:#3c3c3b;stroke-linecap:round;stroke-miterlimit:10;stroke-width:12px"/><line x1="183.74" y1="87.81" x2="183.74" y2="65.22" style="fill:none;stroke:#3c3c3b;stroke-linecap:round;stroke-miterlimit:10;stroke-width:12px"/></svg>