<svg xmlns="http://www.w3.org/2000/svg" viewBox="0 0 283.46 283.46"><title>posting job advert</title><circle cx="141.73" cy="141.73" r="141.73" style="fill:#ededed"/><path d="M127.44,208.1a7,7,0,0,1-.9,0c-5.36-.57-6.56-4.94-7.2-7.3-.14-.5-.27-1-.41-1.34-2.94-7.77-6.36-17-9.46-26.47a5.61,5.61,0,0,0-4-4c-7.55-2.68-15.18-5.5-22.55-8.22L77,158.52l-1.07-.39a24,24,0,0,1-4.54-2c-3.09-1.85-3.87-4.11-4-5.67s.36-3.95,3.2-6.25a16.25,16.25,0,0,1,3.55-2c.39-.17.78-.35,1.15-.54L199,78.07l.72-.38a25.71,25.71,0,0,1,3.19-1.48,13.12,13.12,0,0,1,4.43-.85,8.2,8.2,0,0,1,6,2.39c1.89,1.92,2.83,4.73,2.78,8.34v.29l-1.61,9c-1.18,6.59-2.39,13.3-3.63,20q-6.34,34.28-12.73,68.54l-.91,4.86c-.13.71-.3,1.41-.46,2.11s-.27,1.13-.38,1.7c-1.21,6.28-5.07,7.22-7.27,7.22a12.4,12.4,0,0,1-4.83-1.16c-4.57-2-9.29-3.85-13.86-5.67-5.37-2.15-10.92-4.36-16.33-6.74a10.74,10.74,0,0,0-3.69-1.08c-.45,0-1.41,0-2.93,2.4a101.13,101.13,0,0,1-8.81,11.34c-1,1.21-2.06,2.41-3.07,3.63-.26.31-.5.65-.75,1C133.48,205.32,131.44,208.1,127.44,208.1Z" style="fill:#3c3c3b"/><path d="M207.34,78.86c3.34,0,5.32,2.5,5.26,7.18-1.68,9.29-3.4,19-5.19,28.67q-6.79,36.71-13.64,73.39c-.24,1.27-.6,2.52-.84,3.8-.58,3-1.81,4.37-3.83,4.37a9,9,0,0,1-3.45-.88c-10-4.28-20.21-8-30.16-12.4a13.21,13.21,0,0,0-5.1-1.38c-2.17,0-4,1.12-5.89,4-3.32,5.22-7.65,9.82-11.62,14.62-1.5,1.82-2.65,4.34-5.44,4.34l-.53,0c-3.78-.4-3.77-3.92-4.71-6.4-3.29-8.71-6.51-17.47-9.41-26.32a9,9,0,0,0-6.17-6.22c-9.51-3.38-19-6.91-28.44-10.4a28.75,28.75,0,0,1-5-2.06c-3-1.78-3-4.07-.38-6.2a23.56,23.56,0,0,1,4.1-2.18L200.6,81.18a31.2,31.2,0,0,1,3.5-1.68,9.57,9.57,0,0,1,3.24-.64m0-7h0a16.53,16.53,0,0,0-5.62,1.06,27.08,27.08,0,0,0-3.63,1.68l-.69.36L73.68,138.57c-.27.14-.62.3-1,.47a19,19,0,0,0-4.3,2.49c-4.23,3.41-4.63,7.24-4.49,9.21s1.06,5.67,5.68,8.43a26.77,26.77,0,0,0,5.17,2.27l1,.36L81.67,164c7.39,2.73,15,5.56,22.61,8.25,1.31.46,1.51.74,1.86,1.8,3.12,9.53,6.56,18.8,9.52,26.62.08.21.19.63.3,1,.68,2.47,2.47,9,10.21,9.86.42,0,.85.06,1.27.06,5.78,0,8.78-4.09,10.22-6.06.23-.32.45-.62.62-.82,1-1.19,2-2.35,3-3.58a102.13,102.13,0,0,0,9.11-11.75c.19-.29.35-.51.47-.67a15,15,0,0,1,1.79.68c5.47,2.4,11.05,4.63,16.45,6.79,4.54,1.82,9.24,3.69,13.77,5.64a15.78,15.78,0,0,0,6.21,1.44c2.06,0,8.92-.72,10.7-10.06.09-.46.22-1,.35-1.54s.35-1.46.5-2.29l1-5.4c4.15-22.29,8.44-45.33,12.63-68,1.24-6.7,2.45-13.44,3.62-20l1.58-8.72.1-.57v-.58c.07-5.71-2-9-3.79-10.85a11.77,11.77,0,0,0-8.47-3.43Z" style="fill:#fff"/><path d="M188.75,109.78c1.43-1.87,3.54-3.87,1.05-6.08s-4.34,0-6.18,1.48-3.69,3-5.52,4.48c-19.37,16-38.81,31.9-58,48.05-3.17,2.65-5.73,3.11-9.53,1.55-8.42-3.46-17.06-6.4-27.18-10.14,43.8-23,54-28.2,115.94-59.59a2.08,2.08,0,0,1,3,2c-.4,4.18-2.58,11.25-3.33,15.46-4.48,24.92-9.26,49.78-13.94,74.66-.94,5-1,5.08-5.71,3.14-4.34-1.79-36.9-13.34-39.15-15.9C138.6,164.77,187.46,111.47,188.75,109.78Z" style="fill:#f18643"/><path d="M134.9,165.77c-3.9,5.21-3.58,11-5.25,16.58-.68,2.21-.67,4.64-2.3,7.16l-7.72-21.15c-.8-2.18-.81-4.08,1.34-5.62,12.57-9.05,43.49-36,43.49-36s7-6.39,7.66-5.91c1.21.84-5.64,7.68-5.64,7.68S142.57,155.52,134.9,165.77Z" style="fill:#f18643"/><path d="M143.32,175.61c-2.3,4.17-5.81,7.32-8.82,11.46-1.51-3.19.16-5.49.58-7.86C136.38,172,136.43,172,143.32,175.61Z" style="fill:#f18643"/></svg>