<svg xmlns="http://www.w3.org/2000/svg" viewBox="0 0 283.46 283.46"><title>priority access</title><polygon points="88.03 166.37 34.32 114.02 108.54 103.23 141.73 35.97 174.93 103.23 249.15 114.02 195.44 166.37 208.12 240.29 141.73 205.39 75.35 240.29 88.03 166.37" style="fill:#fff"/><polygon points="102.54 161.65 63.34 123.45 117.51 115.58 141.73 66.5 165.96 115.58 220.12 123.45 180.93 161.65 190.18 215.6 141.73 190.13 93.29 215.6 102.54 161.65" style="fill:#40b3e7"/><path d="M141.73,74.4l21.9,44.38,49,7.11-35.43,34.54,8.36,48.77-43.8-23-43.8,23,8.37-48.77L70.87,125.89l49-7.11,21.9-44.38m0-15.81-6.27,12.72-20.27,41.07L69.86,119l-14,2L66,130.9l32.8,32L91,208l-2.4,14,12.55-6.6,40.54-21.32,40.54,21.32,12.56,6.6-2.4-14-7.74-45.15,32.79-32,10.16-9.9-14-2-45.33-6.58L148,71.31l-6.28-12.72Z" style="fill:#3c3c3b"/></svg>