<svg xmlns="http://www.w3.org/2000/svg" viewBox="0 0 283.46 283.46"><title>response to candidates</title><circle cx="141.73" cy="141.73" r="141.73" style="fill:#ededed"/><path d="M185.27,216.25c-3.51,0-7-1.57-13.43-4.41-3.11-1.38-7-3.1-11.82-5.07-43.51-17.66-73.78-49.25-90-93.88-6.6-18.19.62-26.42,7.64-31.56A47.33,47.33,0,0,0,84,75.4c1.23-1.31,2.5-2.66,3.86-3.94,3-2.82,6.08-4.25,9.24-4.25,3.41,0,6.58,1.64,9.41,4.86l4.63,5.22c6.08,6.86,12.37,13.95,18.21,21.26,1.74,2.17,4,5.5,3.47,9.31s-3.59,6.57-6.53,8.71c-9.73,7.06-13.64,11.25-14,14.94s2.89,8.61,11.45,17.41c5.2,5.34,10.74,10.57,16.1,15.63l1.54,1.45a13.29,13.29,0,0,0,9.42,4H151a11.91,11.91,0,0,0,9.78-5c.86-1.17,1.66-2.42,2.5-3.74,1-1.55,2-3.16,3.18-4.69,3.16-4.12,6.44-6.12,10-6.12,2.68,0,5.38,1.12,8.27,3.43,8.42,6.74,16.66,13.94,24.62,20.9l2,1.75c2.92,2.55,4.49,5.41,4.67,8.5s-1.09,6.22-3.77,9.18c-.5.55-1.09,1.19-1.74,1.8-4.34,4.13-7.65,7.51-10.32,10.24C193.72,212.9,190.44,216.25,185.27,216.25Z" style="fill:#40b3e7"/><path d="M97.05,70.71c2.32,0,4.6,1.19,6.79,3.67,7.67,8.7,15.49,17.3,22.73,26.35,4.45,5.58,3.48,8.74-2.39,13-19.78,14.37-20.26,19.83-3,37.62C127,157.25,133,162.89,139,168.54a16.84,16.84,0,0,0,11.83,5h.32a15.42,15.42,0,0,0,12.52-6.44c2-2.71,3.6-5.71,5.64-8.38,2.41-3.13,4.72-4.75,7.25-4.75,1.86,0,3.85.88,6.08,2.66,9.06,7.24,17.78,14.92,26.51,22.55,4.45,3.89,4.63,8.26.61,12.69-.51.56-1,1.11-1.56,1.62-14.47,13.77-17.58,19.3-22.89,19.3-4.25,0-9.92-3.53-23.93-9.22-42.91-17.42-72.14-48.12-88-91.84-4.09-11.27-3.81-20,6.42-27.53,3.88-2.85,6.93-6.82,10.46-10.16,2.28-2.16,4.58-3.29,6.84-3.29m0-7h0c-4.08,0-8,1.75-11.65,5.2-1.43,1.36-2.74,2.75-4,4.09a45.11,45.11,0,0,1-5.78,5.51c-15.43,11.28-12.45,25.71-8.87,35.57C83.3,159.69,114.24,192,158.7,210c4.79,2,8.63,3.65,11.72,5,6.61,2.94,10.59,4.71,14.85,4.71,6.65,0,10.73-4.17,17.49-11.08,2.64-2.7,5.93-6.06,10.23-10.14.72-.69,1.36-1.39,1.91-2,4.16-4.58,4.84-8.91,4.68-11.73s-1.31-7-5.86-10.94l-2-1.73c-8-7-16.26-14.23-24.76-21-3.53-2.83-6.94-4.2-10.45-4.2-7,0-11.37,5.64-12.8,7.49-1.27,1.66-2.33,3.33-3.36,4.94-.81,1.27-1.57,2.47-2.36,3.54a8.4,8.4,0,0,1-7.05,3.6h-.16a9.83,9.83,0,0,1-7-3.05L142.21,162c-5.33-5-10.83-10.22-16-15.51-2.95-3-10.78-11.07-10.47-14.66s9.18-10,12.52-12.41,7.25-5.87,8-11.08-2.07-9.28-4.21-12C126.14,89,119.82,81.87,113.71,75l-4.62-5.23c-4.4-5-9-6-12-6Z" style="fill:#3c3c3b"/></svg>