<svg xmlns="http://www.w3.org/2000/svg" viewBox="0 0 283.46 283.46"><title>submission of candidates</title><circle cx="141.73" cy="141.73" r="141.73" style="fill:#ededed"/><rect x="86.3" y="67.37" width="110.86" height="148.73" rx="3.5" style="fill:#fff"/><path d="M193.66,70.87V212.6H89.8V70.87H193.66m0-7H89.8a7,7,0,0,0-7,7V212.6a7,7,0,0,0,7,7H193.66a7,7,0,0,0,7-7V70.87a7,7,0,0,0-7-7Z" style="fill:#3c3c3b"/><line x1="140.84" y1="125.17" x2="183.68" y2="125.17" style="fill:#fff;stroke:#f18643;stroke-linejoin:round;stroke-width:6px"/><line x1="99.78" y1="125.17" x2="128.72" y2="125.17" style="fill:#fff;stroke:#f18643;stroke-linejoin:round;stroke-width:6px"/><line x1="140.84" y1="108.6" x2="183.68" y2="108.6" style="fill:#fff;stroke:#f18643;stroke-linejoin:round;stroke-width:6px"/><line x1="99.78" y1="92.04" x2="183.68" y2="92.04" style="fill:#fff;stroke:#f18643;stroke-linejoin:round;stroke-width:6px"/><line x1="99.78" y1="108.6" x2="128.72" y2="108.6" style="fill:#fff;stroke:#f18643;stroke-linejoin:round;stroke-width:6px"/><line x1="140.84" y1="141.73" x2="183.68" y2="141.73" style="fill:#fff;stroke:#f18643;stroke-linejoin:round;stroke-width:6px"/><line x1="99.78" y1="141.73" x2="128.72" y2="141.73" style="fill:#fff;stroke:#f18643;stroke-linejoin:round;stroke-width:6px"/><line x1="140.84" y1="158.3" x2="183.68" y2="158.3" style="fill:#fff;stroke:#f18643;stroke-linejoin:round;stroke-width:6px"/><line x1="99.78" y1="158.3" x2="128.72" y2="158.3" style="fill:#fff;stroke:#f18643;stroke-linejoin:round;stroke-width:6px"/><line x1="140.84" y1="174.86" x2="183.68" y2="174.86" style="fill:#fff;stroke:#f18643;stroke-linejoin:round;stroke-width:6px"/><line x1="99.78" y1="174.86" x2="128.72" y2="174.86" style="fill:#fff;stroke:#f18643;stroke-linejoin:round;stroke-width:6px"/><line x1="140.84" y1="191.43" x2="183.68" y2="191.43" style="fill:#fff;stroke:#f18643;stroke-linejoin:round;stroke-width:6px"/><line x1="99.78" y1="191.43" x2="128.72" y2="191.43" style="fill:#fff;stroke:#f18643;stroke-linejoin:round;stroke-width:6px"/></svg>