<svg xmlns="http://www.w3.org/2000/svg" viewBox="0 0 283.46 283.46"><title>training &amp;amp; equipping</title><polygon points="106.78 189.43 58.32 189.43 71.98 170.03 71.98 132.21 94.66 132.21 94.66 170.33 106.78 189.43" style="fill:#fff"/><path d="M142.65,202.32c-33.5,0-49.77-21.2-51.52-23.62l-3.22-4.46V121.37H199.24V174.9l-4,4.73C193.36,182,175.44,202.32,142.65,202.32Z" style="fill:#fff"/><polygon points="38.78 125.27 141.62 64.37 246.84 125.08 142.65 188.67 38.78 125.27" style="fill:#fff"/><polyline points="83.32 130.21 83.32 171.63 80.18 176.09 86.15 176.09 83.32 171.63 83.32 183.95" style="fill:#40b3e7;stroke:#3c3c3b;stroke-miterlimit:10;stroke-width:7px"/><path d="M142.65,188.81c-27.24,0-40-17.28-40.57-18l-.66-.91v-35h84.31V170l-.81,1C184.31,171.71,169.75,188.81,142.65,188.81Z" style="fill:#40b3e7"/><path d="M182.23,138.37v30.37s-13.81,16.57-39.58,16.57-37.73-16.57-37.73-16.57V138.37h77.31m7-7H97.92V171l1.32,1.83c.58.8,14.4,19.47,43.41,19.47,28.72,0,44.31-18.3,44.95-19.08l1.63-1.95V131.37Z" style="fill:#3c3c3b"/><polygon points="64.99 125.44 141.71 80.02 220.38 125.4 142.65 172.84 64.99 125.44" style="fill:#40b3e7"/><path d="M141.73,84.07l71.79,41.42-70.87,43.25L71.79,125.49l69.94-41.42m0-8.1-3.52,2.08L68.22,119.47l-10,5.93,9.94,6.06L139,174.72l3.64,2.23,3.65-2.23,70.87-43.26,10.06-6.14L217,119.43,145.23,78l-3.54-2Z" style="fill:#3c3c3b"/></svg>