<svg xmlns="http://www.w3.org/2000/svg" viewBox="0 0 121.95 122.04"><defs><style>.cls-1{fill:#fdd22b;}</style></defs><g id="Layer_2" data-name="Layer 2"><g id="Layer_1-2" data-name="Layer 1"><path class="cls-1" d="M47.54,34.58,62.62,60.7,47.54,86.81H17.39L2.31,60.7,17.39,34.58H47.54m1.16-2H16.23L0,60.7,16.23,88.81H48.7L64.93,60.7,48.7,32.58Z"/><path class="cls-1" d="M104.57,67.81l15.07,26.11L104.57,120H74.41L59.33,93.92,74.41,67.81h30.16m1.15-2H73.26L57,93.92,73.26,122h32.46L122,93.92,105.72,65.81Z"/><path class="cls-1" d="M104.57,2l15.07,26.11L104.57,54.23H74.41L59.33,28.11,74.41,2h30.16m1.15-2H73.26L57,28.11,73.26,56.23h32.46L122,28.11,105.72,0Z"/></g></g></svg>